# xmcd CD database file
#
# Track frame offsets:
#	150
#	26309
#	48526
#	72571
#	94682
#	118136
#	124110
#	151518
#	174716
#	203293
#	223403
#
# Disc length: 3232 seconds
#
# Revision: 0
# Processed by: cddbd v1.5.1PL0 Copyright (c) Steve Scherf et al.
# Submitted via: CDex 1.50
#
DISCID=960c9e0b
DTITLE=Bruce A. Henry - Connections
DYEAR=2003
DGENRE=Jazz
TTITLE0=Equinox
TTITLE1=On The Red Clay
TTITLE2=Darker Brother-I Too, Sing
TTITLE3=In a Sentimental Mood
TTITLE4=Mighty, Mighty
TTITLE5=Africa Cries Prelude
TTITLE6=Africa Cries
TTITLE7=Afro Blue
TTITLE8=House of the Rising Sun
TTITLE9=Sound of Music
TTITLE10=Moon
EXTD=YEAR: 2003
EXTT0=
EXTT1=
EXTT2=
EXTT3=
EXTT4=
EXTT5=
EXTT6=
EXTT7=
EXTT8=
EXTT9=
EXTT10=
PLAYORDER=
